<?xml version="1.0" encoding="UTF-8" standalone="no"?>
<svg
   version="1.1"
   id="yaloub_logo"
   x="0px"
   y="0px"
   viewBox="0 0 100 100"
   enable-background="new 0 0 100 100"
   xml:space="preserve"
   sodipodi:docname="yaloub-logo.svg"
   inkscape:version="1.2.2 (b0a8486541, 2022-12-01)"
   xmlns:inkscape="http://www.inkscape.org/namespaces/inkscape"
   xmlns:sodipodi="http://sodipodi.sourceforge.net/DTD/sodipodi-0.dtd"
   xmlns="http://www.w3.org/2000/svg"
   xmlns:svg="http://www.w3.org/2000/svg"><defs
   id="defs29" /><sodipodi:namedview
   id="namedview27"
   pagecolor="#ffffff"
   bordercolor="#000000"
   borderopacity="0.25"
   inkscape:showpageshadow="2"
   inkscape:pageopacity="0.0"
   inkscape:pagecheckerboard="0"
   inkscape:deskcolor="#d1d1d1"
   showgrid="false"
   inkscape:zoom="5.4305801"
   inkscape:cx="50.178802"
   inkscape:cy="50.08673"
   inkscape:window-width="2550"
   inkscape:window-height="1009"
   inkscape:window-x="0"
   inkscape:window-y="35"
   inkscape:window-maximized="1"
   inkscape:current-layer="yaloub_logo" />

<ellipse
   style="fill:#ffffff;stroke-width:1.06825"
   id="path339"
   cx="49.994659"
   cy="49.994659"
   rx="49.994659"
   ry="49.810516" /><g
   id="g24">
	<path
   fill="none"
   d="M70.3,56.6c-0.3,0-0.7,0.1-1,0.3c-0.3,0.2-0.6,0.5-0.9,0.9v3.5c0.5,0.5,1.1,0.7,1.7,0.7c0.5,0,1-0.2,1.3-0.7   c0.3-0.5,0.5-1.1,0.5-2.1c0-0.9-0.1-1.5-0.4-2C71.2,56.8,70.8,56.6,70.3,56.6z"
   id="path2" />
    <path
   fill="none"
   d="M40.4,59.9c-0.4,0.2-0.6,0.6-0.6,1.1c0,0.4,0.1,0.7,0.4,0.8c0.3,0.2,0.6,0.3,1,0.3c0.2,0,0.4,0,0.6-0.1   c0.2,0,0.4-0.1,0.5-0.2c0.2-0.1,0.3-0.2,0.5-0.3c0.1-0.1,0.3-0.2,0.4-0.4v-1.6h-0.8C41.5,59.6,40.8,59.7,40.4,59.9z"
   id="path4" />
    <path
   fill="none"
   d="M51.8,61.3c0.2,0.2,0.4,0.4,0.6,0.5c0.2,0.1,0.5,0.2,0.8,0.2c0.3,0,0.5-0.1,0.8-0.2c0.2-0.1,0.4-0.3,0.6-0.5   c0.2-0.2,0.3-0.5,0.4-0.8c0.1-0.3,0.1-0.7,0.1-1.2c0-0.5,0-0.9-0.1-1.2c-0.1-0.3-0.2-0.6-0.4-0.8c-0.2-0.2-0.4-0.4-0.6-0.5   c-0.2-0.1-0.5-0.2-0.8-0.2c-0.3,0-0.6,0.1-0.8,0.2c-0.2,0.1-0.4,0.3-0.6,0.5c-0.2,0.2-0.3,0.5-0.4,0.8c-0.1,0.3-0.1,0.7-0.1,1.2   c0,0.5,0,0.9,0.1,1.2C51.6,60.8,51.7,61.1,51.8,61.3z"
   id="path6" />
    <path
   fill="#000000"
   d="M81.9,20.4c-2.3-3-6.7-3.6-9.8-1.3c-2.1,1.6-3.1,4.3-2.6,6.8L55.8,36.5c-2.3-1.1-5.1-0.9-7.2,0.8   c-0.2,0.2-0.4,0.4-0.7,0.6l-22.3-6.8c-0.1-1-0.3-1.9-0.8-2.8c-1.8-3.4-6-4.7-9.4-2.9c-3.4,1.8-4.7,6-2.9,9.4c1.8,3.4,6,4.7,9.4,2.9   c0.4-0.2,0.7-0.5,1.1-0.7l22.9,6.9c0.2,1.1,0.6,2.2,1.3,3.1c2.3,3.1,6.7,3.6,9.8,1.3c2.1-1.6,3-4.3,2.6-6.7L73.4,31   c2.3,1.1,5,0.8,7.2-0.8C83.6,27.9,84.2,23.5,81.9,20.4z"
   id="path8" />
    <path
   fill="#000000"
   d="M47.8,70.5c-2.7,2.8-2.6,7.2,0.1,9.8c2.8,2.7,7.2,2.6,9.8-0.1c2.7-2.8,2.6-7.2-0.1-9.8   C54.9,67.7,50.5,67.7,47.8,70.5z"
   id="path10" />
    <path
   fill="#000000"
   d="M35.6,55.2l-1,3.2l-0.8,2.8L33,58.5c-0.2-0.5-0.3-1.1-0.5-1.6c-0.2-0.5-0.3-1.1-0.5-1.6h-2.2l3,8.1   c-0.2,0.5-0.4,0.9-0.6,1.2c-0.2,0.3-0.5,0.4-0.9,0.4c-0.3,0-0.6,0-0.9-0.1v1.7c0.2,0.1,0.4,0.1,0.6,0.1c0.2,0,0.4,0,0.7,0   c0.5,0,0.8-0.1,1.2-0.2c0.3-0.2,0.6-0.4,0.8-0.7c0.2-0.3,0.4-0.6,0.6-1c0.2-0.4,0.3-0.8,0.5-1.3l3-8.1H35.6z"
   id="path12" />
    <path
   fill="#000000"
   d="M44.3,55.7c-0.3-0.2-0.7-0.4-1.2-0.5c-0.4-0.1-0.9-0.1-1.5-0.1c-2.3,0-3.6,0.8-3.7,2.5h1.9   c0-0.4,0.2-0.7,0.5-0.9c0.3-0.2,0.7-0.3,1.2-0.3c0.3,0,0.6,0,0.8,0.1c0.2,0.1,0.4,0.2,0.5,0.3c0.1,0.1,0.2,0.2,0.2,0.3   c0,0.1,0.1,0.2,0.1,0.4c0,0.2,0,0.5,0,0.9h-0.7c-3.2,0-4.8,0.9-4.8,2.8c0,0.4,0.1,0.7,0.2,1c0.1,0.3,0.3,0.5,0.6,0.7   c0.3,0.2,0.5,0.3,0.9,0.5c0.3,0.1,0.7,0.2,1.1,0.2c0.6,0,1.1-0.1,1.5-0.2c0.5-0.2,0.9-0.4,1.2-0.7v0.7h2.1v-5.2   c0-0.7-0.1-1.2-0.2-1.6C44.9,56.2,44.6,55.9,44.3,55.7z M43.2,61.2c-0.1,0.1-0.2,0.3-0.4,0.4c-0.1,0.1-0.3,0.2-0.5,0.3   C42.1,62,42,62,41.8,62.1c-0.2,0-0.4,0.1-0.6,0.1c-0.4,0-0.8-0.1-1-0.3c-0.3-0.2-0.4-0.5-0.4-0.8c0-0.5,0.2-0.9,0.6-1.1   c0.4-0.2,1.1-0.3,1.9-0.3h0.8V61.2z"
   id="path14" />
    <rect
   x="46.4"
   y="52.2"
   fill="#000000"
   width="2.1"
   height="11.2"
   id="rect16" />
    <path
   fill="#000000"
   d="M51.6,63.2c0.5,0.2,1.1,0.3,1.7,0.3c0.6,0,1.2-0.1,1.7-0.3c0.5-0.2,0.9-0.5,1.3-0.8   c0.3-0.4,0.6-0.8,0.8-1.3c0.2-0.5,0.3-1.1,0.3-1.8c0-0.7-0.1-1.3-0.3-1.8c-0.2-0.5-0.5-1-0.8-1.3c-0.3-0.4-0.8-0.6-1.3-0.8   c-0.5-0.2-1-0.3-1.7-0.3c-0.6,0-1.2,0.1-1.7,0.3c-0.5,0.2-0.9,0.5-1.3,0.8c-0.3,0.4-0.6,0.8-0.8,1.3c-0.2,0.5-0.3,1.1-0.3,1.8   c0,0.7,0.1,1.3,0.3,1.8c0.2,0.5,0.5,1,0.8,1.3C50.6,62.8,51.1,63.1,51.6,63.2z M51.5,58.1c0.1-0.3,0.2-0.6,0.4-0.8   c0.2-0.2,0.4-0.4,0.6-0.5c0.2-0.1,0.5-0.2,0.8-0.2c0.3,0,0.5,0.1,0.8,0.2c0.2,0.1,0.4,0.3,0.6,0.5c0.2,0.2,0.3,0.5,0.4,0.8   c0.1,0.3,0.1,0.7,0.1,1.2c0,0.5,0,0.9-0.1,1.2c-0.1,0.3-0.2,0.6-0.4,0.8c-0.2,0.2-0.4,0.4-0.6,0.5c-0.2,0.1-0.5,0.2-0.8,0.2   c-0.3,0-0.6-0.1-0.8-0.2c-0.2-0.1-0.4-0.3-0.6-0.5c-0.2-0.2-0.3-0.5-0.4-0.8c-0.1-0.3-0.1-0.7-0.1-1.2   C51.3,58.8,51.4,58.4,51.5,58.1z"
   id="path18" />
    <path
   fill="#000000"
   d="M63.1,60.8c-0.5,0.6-1.1,1-1.7,1c-0.3,0-0.6,0-0.8,0c-0.2-0.1-0.4-0.2-0.5-0.5c-0.1-0.2-0.2-0.6-0.2-1v-5.1   h-2.1v5.3c0,2,0.9,3,2.8,3c0.5,0,0.9-0.1,1.3-0.3c0.4-0.2,0.8-0.5,1.2-0.9v1h2v-8.1h-2.1V60.8z"
   id="path20" />
    <path
   fill="#000000"
   d="M73.2,56.2c-0.3-0.4-0.6-0.6-1-0.8c-0.4-0.2-0.9-0.3-1.4-0.3c-0.5,0-0.9,0.1-1.3,0.3   c-0.4,0.2-0.8,0.5-1.1,0.8c0-0.3,0-0.5,0-0.8c0-0.3,0-0.5,0-0.8v-2.4h-2.1v11.2h2v-0.6c0.3,0.3,0.6,0.5,1,0.6   c0.4,0.1,0.8,0.2,1.2,0.2c0.5,0,1-0.1,1.4-0.3c0.4-0.2,0.8-0.5,1.1-0.9c0.3-0.4,0.5-0.8,0.7-1.4s0.2-1.1,0.2-1.8   c0-0.6-0.1-1.2-0.2-1.7C73.7,57,73.5,56.5,73.2,56.2z M71.5,61.3c-0.3,0.5-0.7,0.7-1.3,0.7c-0.7,0-1.2-0.2-1.7-0.7v-3.5   c0.3-0.4,0.6-0.7,0.9-0.9c0.3-0.2,0.6-0.3,1-0.3c0.5,0,0.9,0.2,1.2,0.7c0.3,0.4,0.4,1.1,0.4,2C71.9,60.1,71.8,60.8,71.5,61.3z"
   id="path22" />
</g></svg>
